<svg width="24" height="27" viewBox="0 0 24 27" fill="none" xmlns="http://www.w3.org/2000/svg">
<path d="M8.4296 24.5093V20.6496C8.42959 19.6715 9.21953 18.8769 10.198 18.8708H13.7907C14.7735 18.8708 15.5703 19.6672 15.5703 20.6496V24.4981C15.5703 25.3465 16.255 26.0359 17.1036 26.042H19.5547C20.6995 26.045 21.7984 25.5925 22.6089 24.7844C23.4194 23.9763 23.8749 22.8791 23.8749 21.7348V10.771C23.8749 9.84663 23.465 8.96984 22.7557 8.37681L14.4287 1.72019C12.9731 0.555878 10.8942 0.593489 9.48168 1.8097L1.3337 8.37681C0.590865 8.95236 0.146879 9.83174 0.124939 10.771V21.7236C0.124939 24.1086 2.05917 26.042 4.44516 26.042H6.8403C7.2489 26.045 7.6418 25.8848 7.93178 25.5971C8.22176 25.3093 8.38485 24.9178 8.38484 24.5093H8.4296Z" fill="white"/>
</svg>
