<svg width="30" height="31" viewBox="0 0 30 31" fill="none" xmlns="http://www.w3.org/2000/svg">
<path opacity="0.4" d="M2.49994 8.76825C2.49994 5.68361 5.03774 3.1716 8.1556 3.1716H14.357C17.4685 3.1716 19.9999 5.67606 19.9999 8.75567V22.7454C19.9999 25.8313 17.4621 28.3421 14.343 28.3421H8.14416C5.03138 28.3421 2.49994 25.8376 2.49994 22.758V21.575V8.76825Z" fill="white"/>
<path d="M27.2237 15.0707L23.6665 11.4096C23.2988 11.0321 22.7072 11.0321 22.3407 11.4122C21.9755 11.7922 21.9767 12.4051 22.3432 12.7827L24.2922 14.7875H22.4235H11.9356C11.4182 14.7875 10.9982 15.2217 10.9982 15.7566C10.9982 16.2927 11.4182 16.7256 11.9356 16.7256H24.2922L22.3432 18.7305C21.9767 19.108 21.9755 19.7209 22.3407 20.101C22.5246 20.291 22.7644 20.3867 23.0054 20.3867C23.244 20.3867 23.4839 20.291 23.6665 20.1035L27.2237 16.4437C27.4002 16.2612 27.5001 16.0146 27.5001 15.7566C27.5001 15.4998 27.4002 15.2532 27.2237 15.0707Z" fill="white"/>
</svg>
