<svg width="30" height="31" viewBox="0 0 30 31" fill="none" xmlns="http://www.w3.org/2000/svg">
<path d="M15.0149 18.6641C13.0093 18.6641 11.3869 17.0909 11.3869 15.115C11.3869 13.1391 13.0093 11.5534 15.0149 11.5534C17.0204 11.5534 18.6045 13.1391 18.6045 15.115C18.6045 17.0909 17.0204 18.6641 15.0149 18.6641Z" fill="white"/>
<path opacity="0.4" d="M26.5375 18.0851C26.2948 17.7076 25.9499 17.33 25.5027 17.0909C25.1451 16.9147 24.9151 16.6252 24.7107 16.2854C24.0592 15.2031 24.4425 13.781 25.5283 13.1391C26.8057 12.4218 27.2145 10.8234 26.4736 9.57749L25.6177 8.09244C24.8896 6.8465 23.2928 6.40602 22.0281 7.13596C20.9039 7.74005 19.4604 7.33732 18.8089 6.26758C18.6045 5.91519 18.4896 5.53764 18.5151 5.16008C18.5534 4.66926 18.4001 4.2036 18.1702 3.82605C17.6975 3.04576 16.8417 2.51718 15.8963 2.51718H14.0951C13.1626 2.54235 12.3067 3.04576 11.8341 3.82605C11.5914 4.2036 11.4508 4.66926 11.4764 5.16008C11.5019 5.53764 11.387 5.91519 11.1826 6.26758C10.5311 7.33732 9.08756 7.74005 7.97618 7.13596C6.69873 6.40602 5.1147 6.8465 4.37378 8.09244L3.51789 9.57749C2.78975 10.8234 3.19853 12.4218 4.4632 13.1391C5.54903 13.781 5.93226 15.2031 5.29354 16.2854C5.07638 16.6252 4.84644 16.9147 4.48875 17.0909C4.05442 17.33 3.67118 17.7076 3.46679 18.0851C2.99414 18.8654 3.01969 19.847 3.49234 20.6651L4.37378 22.1753C4.84644 22.9808 5.72787 23.4842 6.64763 23.4842C7.08197 23.4842 7.59295 23.3583 8.00173 23.1066C8.32109 22.8927 8.70432 22.8172 9.12588 22.8172C10.3906 22.8172 11.4508 23.8617 11.4764 25.1077C11.4764 26.555 12.6516 27.6876 14.1335 27.6876H15.8708C17.3399 27.6876 18.5151 26.555 18.5151 25.1077C18.5534 23.8617 19.6137 22.8172 20.8784 22.8172C21.2872 22.8172 21.6704 22.8927 22.0025 23.1066C22.4113 23.3583 22.9095 23.4842 23.3566 23.4842C24.2636 23.4842 25.1451 22.9808 25.6177 22.1753L26.5119 20.6651C26.9718 19.8219 27.0101 18.8654 26.5375 18.0851Z" fill="white"/>
</svg>
