<svg width="13" height="13" viewBox="0 0 13 13" fill="none" xmlns="http://www.w3.org/2000/svg">
<path d="M6.50644 8.03299C5.63735 8.03299 4.93433 7.3559 4.93433 6.50549C4.93433 5.65507 5.63735 4.97257 6.50644 4.97257C7.37553 4.97257 8.06194 5.65507 8.06194 6.50549C8.06194 7.3559 7.37553 8.03299 6.50644 8.03299Z" fill="white"/>
<path opacity="0.4" d="M11.4996 7.78381C11.3944 7.62131 11.245 7.45881 11.0512 7.35589C10.8962 7.28006 10.7966 7.15548 10.708 7.00923C10.4257 6.54339 10.5918 5.93131 11.0623 5.65506C11.6159 5.34631 11.793 4.65839 11.4719 4.12214L11.101 3.48298C10.7855 2.94673 10.0936 2.75714 9.54554 3.07131C9.05841 3.33131 8.43289 3.15798 8.15057 2.69756C8.062 2.54589 8.01218 2.38339 8.02325 2.22089C8.03986 2.00964 7.97343 1.80923 7.87379 1.64673C7.66898 1.31089 7.29809 1.08339 6.88846 1.08339H6.10794C5.70384 1.09423 5.33295 1.31089 5.12813 1.64673C5.02296 1.80923 4.96207 2.00964 4.97314 2.22089C4.98421 2.38339 4.93439 2.54589 4.84582 2.69756C4.5635 3.15798 3.93798 3.33131 3.45638 3.07131C2.90282 2.75714 2.21641 2.94673 1.89534 3.48298L1.52446 4.12214C1.20893 4.65839 1.38607 5.34631 1.93409 5.65506C2.40462 5.93131 2.57069 6.54339 2.29391 7.00923C2.1998 7.15548 2.10016 7.28006 1.94516 7.35589C1.75695 7.45881 1.59089 7.62131 1.50232 7.78381C1.2975 8.11964 1.30857 8.54214 1.51339 8.89423L1.89534 9.54423C2.10016 9.89089 2.48212 10.1076 2.88068 10.1076C3.06889 10.1076 3.29031 10.0534 3.46745 9.94506C3.60584 9.85298 3.77191 9.82048 3.95459 9.82048C4.50261 9.82048 4.96207 10.2701 4.97314 10.8063C4.97314 11.4292 5.48241 11.9167 6.12454 11.9167H6.87738C7.51398 11.9167 8.02325 11.4292 8.02325 10.8063C8.03986 10.2701 8.49932 9.82048 9.04734 9.82048C9.22448 9.82048 9.39055 9.85298 9.53447 9.94506C9.71161 10.0534 9.9275 10.1076 10.1212 10.1076C10.5143 10.1076 10.8962 9.89089 11.101 9.54423L11.4885 8.89423C11.6878 8.53131 11.7044 8.11964 11.4996 7.78381Z" fill="white"/>
</svg>
