<svg width="23" height="23" viewBox="0 0 23 23" fill="none" xmlns="http://www.w3.org/2000/svg">
<path d="M13.225 23C11.155 23 9.39167 22.2717 7.935 20.815C6.47833 19.3583 5.75 17.595 5.75 15.525V14.8637C4.10167 14.5954 2.73125 13.824 1.63875 12.5494C0.54625 11.2748 0 9.775 0 8.05V1.15H3.45V0H5.75V4.6H3.45V3.45H2.3V8.05C2.3 9.315 2.75042 10.3979 3.65125 11.2987C4.55208 12.1996 5.635 12.65 6.9 12.65C8.165 12.65 9.24792 12.1996 10.1487 11.2987C11.0496 10.3979 11.5 9.315 11.5 8.05V3.45H10.35V4.6H8.05V0H10.35V1.15H13.8V8.05C13.8 9.775 13.2537 11.2748 12.1612 12.5494C11.0687 13.824 9.69833 14.5954 8.05 14.8637V15.525C8.05 16.9625 8.55312 18.1844 9.55937 19.1906C10.5656 20.1969 11.7875 20.7 13.225 20.7C14.6625 20.7 15.8844 20.1969 16.8906 19.1906C17.8969 18.1844 18.4 16.9625 18.4 15.525V13.5987C17.7292 13.3687 17.1781 12.9567 16.7469 12.3625C16.3156 11.7683 16.1 11.0975 16.1 10.35C16.1 9.39167 16.4354 8.57708 17.1062 7.90625C17.7771 7.23542 18.5917 6.9 19.55 6.9C20.5083 6.9 21.3229 7.23542 21.9937 7.90625C22.6646 8.57708 23 9.39167 23 10.35C23 11.0975 22.7844 11.7683 22.3531 12.3625C21.9219 12.9567 21.3708 13.3687 20.7 13.5987V15.525C20.7 17.595 19.9717 19.3583 18.515 20.815C17.0583 22.2717 15.295 23 13.225 23ZM19.55 11.5C19.8758 11.5 20.149 11.3898 20.3694 11.1694C20.5898 10.949 20.7 10.6758 20.7 10.35C20.7 10.0242 20.5898 9.75104 20.3694 9.53063C20.149 9.31021 19.8758 9.2 19.55 9.2C19.2242 9.2 18.951 9.31021 18.7306 9.53063C18.5102 9.75104 18.4 10.0242 18.4 10.35C18.4 10.6758 18.5102 10.949 18.7306 11.1694C18.951 11.3898 19.2242 11.5 19.55 11.5Z" fill="white"/>
</svg>
