<svg width="21" height="21" viewBox="0 0 21 21" fill="none" xmlns="http://www.w3.org/2000/svg">
<path fill-rule="evenodd" clip-rule="evenodd" d="M13.2448 3.03596C13.1217 2.91289 12.9548 2.84375 12.7808 2.84375C12.6067 2.84375 12.4398 2.91289 12.3167 3.03596L4.27339 11.0793C4.19095 11.1617 4.13195 11.2647 4.10249 11.3775L3.22749 14.7274C3.16861 14.9528 3.23365 15.1925 3.3984 15.3573C3.56314 15.522 3.80287 15.587 4.02828 15.5282L7.37816 14.6532C7.49097 14.6237 7.5939 14.5647 7.67635 14.4823L15.7197 6.43891C15.976 6.18263 15.976 5.76712 15.7197 5.51083L13.2448 3.03596ZM5.32738 11.8815L12.7808 4.42808L14.3276 5.97487L6.87418 13.4283L4.78051 13.9751L5.32738 11.8815Z" fill="white"/>
<path d="M3.5 16.8438C3.13756 16.8438 2.84375 17.1376 2.84375 17.5C2.84375 17.8624 3.13756 18.1563 3.5 18.1563H16.625C16.9874 18.1563 17.2812 17.8624 17.2812 17.5C17.2812 17.1376 16.9874 16.8438 16.625 16.8438H3.5Z" fill="white"/>
</svg>
