<svg width="29" height="29" viewBox="0 0 29 29" fill="none" xmlns="http://www.w3.org/2000/svg">
<path d="M25.375 14.5C25.375 14.7404 25.2795 14.9709 25.1096 15.1408C24.9396 15.3108 24.7091 15.4062 24.4688 15.4062H14.5C14.2597 15.4062 14.0292 15.3108 13.8592 15.1408C13.6892 14.9709 13.5938 14.7404 13.5938 14.5C13.5938 14.2596 13.6892 14.0291 13.8592 13.8592C14.0292 13.6892 14.2597 13.5938 14.5 13.5938H24.4688C24.7091 13.5938 24.9396 13.6892 25.1096 13.8592C25.2795 14.0291 25.375 14.2596 25.375 14.5ZM14.5 8.15625H24.4688C24.7091 8.15625 24.9396 8.06077 25.1096 7.89082C25.2795 7.72086 25.375 7.49035 25.375 7.25C25.375 7.00965 25.2795 6.77914 25.1096 6.60918C24.9396 6.43923 24.7091 6.34375 24.4688 6.34375H14.5C14.2597 6.34375 14.0292 6.43923 13.8592 6.60918C13.6892 6.77914 13.5938 7.00965 13.5938 7.25C13.5938 7.49035 13.6892 7.72086 13.8592 7.89082C14.0292 8.06077 14.2597 8.15625 14.5 8.15625ZM24.4688 20.8438H14.5C14.2597 20.8438 14.0292 20.9392 13.8592 21.1092C13.6892 21.2791 13.5938 21.5096 13.5938 21.75C13.5938 21.9904 13.6892 22.2209 13.8592 22.3908C14.0292 22.5608 14.2597 22.6563 14.5 22.6563H24.4688C24.7091 22.6563 24.9396 22.5608 25.1096 22.3908C25.2795 22.2209 25.375 21.9904 25.375 21.75C25.375 21.5096 25.2795 21.2791 25.1096 21.1092C24.9396 20.9392 24.7091 20.8438 24.4688 20.8438ZM9.32759 4.79633L6.34377 7.78129L5.17244 6.60883C5.00239 6.43878 4.77175 6.34325 4.53127 6.34325C4.29078 6.34325 4.06014 6.43878 3.89009 6.60883C3.72004 6.77888 3.62451 7.00951 3.62451 7.25C3.62451 7.49049 3.72004 7.72112 3.89009 7.89117L5.70259 9.70367C5.78676 9.78793 5.88671 9.85478 5.99673 9.90038C6.10674 9.94599 6.22467 9.96946 6.34377 9.96946C6.46286 9.96946 6.58079 9.94599 6.6908 9.90038C6.80082 9.85478 6.90077 9.78793 6.98494 9.70367L10.6099 6.07867C10.78 5.90862 10.8755 5.67799 10.8755 5.4375C10.8755 5.19701 10.78 4.96638 10.6099 4.79633C10.4399 4.62628 10.2093 4.53075 9.96877 4.53075C9.72828 4.53075 9.49764 4.62628 9.32759 4.79633ZM9.32759 12.0463L6.34377 15.0313L5.17244 13.8588C5.00239 13.6888 4.77175 13.5932 4.53127 13.5932C4.29078 13.5932 4.06014 13.6888 3.89009 13.8588C3.72004 14.0289 3.62451 14.2595 3.62451 14.5C3.62451 14.6191 3.64797 14.737 3.69353 14.847C3.7391 14.957 3.80589 15.057 3.89009 15.1412L5.70259 16.9537C5.78676 17.0379 5.88671 17.1048 5.99673 17.1504C6.10674 17.196 6.22467 17.2195 6.34377 17.2195C6.46286 17.2195 6.58079 17.196 6.6908 17.1504C6.80082 17.1048 6.90077 17.0379 6.98494 16.9537L10.6099 13.3287C10.78 13.1586 10.8755 12.928 10.8755 12.6875C10.8755 12.447 10.78 12.2164 10.6099 12.0463C10.4399 11.8763 10.2093 11.7807 9.96877 11.7807C9.72828 11.7807 9.49764 11.8763 9.32759 12.0463ZM9.32759 19.2963L6.34377 22.2813L5.17244 21.1088C5.08824 21.0246 4.98828 20.9578 4.87827 20.9123C4.76825 20.8667 4.65034 20.8432 4.53127 20.8432C4.41219 20.8432 4.29428 20.8667 4.18427 20.9123C4.07425 20.9578 3.97429 21.0246 3.89009 21.1088C3.80589 21.193 3.7391 21.293 3.69353 21.403C3.64797 21.513 3.62451 21.6309 3.62451 21.75C3.62451 21.8691 3.64797 21.987 3.69353 22.097C3.7391 22.207 3.80589 22.307 3.89009 22.3912L5.70259 24.2037C5.78676 24.2879 5.88671 24.3548 5.99673 24.4004C6.10674 24.446 6.22467 24.4695 6.34377 24.4695C6.46286 24.4695 6.58079 24.446 6.6908 24.4004C6.80082 24.3548 6.90077 24.2879 6.98494 24.2037L10.6099 20.5787C10.78 20.4086 10.8755 20.178 10.8755 19.9375C10.8755 19.697 10.78 19.4664 10.6099 19.2963C10.4399 19.1263 10.2093 19.0307 9.96877 19.0307C9.72828 19.0307 9.49764 19.1263 9.32759 19.2963Z" fill="#FF5E1A"/>
</svg>
