<svg width="30" height="30" viewBox="0 0 30 30" fill="none" xmlns="http://www.w3.org/2000/svg">
<path opacity="0.4" d="M2.5 8.05877C2.5 4.99502 5.0378 2.50002 8.15567 2.50002H14.3571C17.4686 2.50002 20 4.98751 20 8.04627V21.9413C20 25.0063 17.4622 27.5 14.3431 27.5H8.14422C5.03144 27.5 2.5 25.0125 2.5 21.9538V20.7788V8.05877Z" fill="#FF5E1A"/>
<path d="M27.2238 14.3185L23.6665 10.6823C23.2989 10.3073 22.7072 10.3073 22.3408 10.6848C21.9756 11.0623 21.9768 11.671 22.3432 12.046L24.2923 14.0373H22.4236H11.9357C11.4183 14.0373 10.9983 14.4685 10.9983 14.9998C10.9983 15.5323 11.4183 15.9623 11.9357 15.9623H24.2923L22.3432 17.9535C21.9768 18.3285 21.9756 18.9373 22.3408 19.3148C22.5246 19.5035 22.7644 19.5985 23.0055 19.5985C23.2441 19.5985 23.4839 19.5035 23.6665 19.3173L27.2238 15.6823C27.4003 15.501 27.5001 15.256 27.5001 14.9998C27.5001 14.7448 27.4003 14.4998 27.2238 14.3185Z" fill="#FF5E1A"/>
</svg>
