<svg width="23" height="23" viewBox="0 0 23 23" fill="none" xmlns="http://www.w3.org/2000/svg">
<path d="M20.6336 19.6165L16.1351 15.1189C17.439 13.5536 18.0891 11.5458 17.9504 9.51332C17.8116 7.48083 16.8946 5.58007 15.3901 4.20647C13.8856 2.83286 11.9095 2.09216 9.87275 2.13844C7.83605 2.18473 5.8956 3.01444 4.45506 4.45498C3.01452 5.89552 2.18481 7.83597 2.13852 9.87267C2.09223 11.9094 2.83294 13.8855 4.20654 15.39C5.58015 16.8945 7.4809 17.8115 9.5134 17.9503C11.5459 18.089 13.5536 17.4389 15.119 16.135L19.6166 20.6335C19.6833 20.7003 19.7626 20.7533 19.8499 20.7894C19.9371 20.8256 20.0306 20.8442 20.1251 20.8442C20.2195 20.8442 20.313 20.8256 20.4003 20.7894C20.4875 20.7533 20.5668 20.7003 20.6336 20.6335C20.7004 20.5667 20.7533 20.4875 20.7895 20.4002C20.8256 20.313 20.8442 20.2194 20.8442 20.125C20.8442 20.0306 20.8256 19.9371 20.7895 19.8498C20.7533 19.7625 20.7004 19.6833 20.6336 19.6165ZM3.59383 10.0625C3.59383 8.78311 3.97322 7.53244 4.68401 6.46866C5.39481 5.40488 6.40509 4.57577 7.5871 4.08616C8.76911 3.59656 10.0698 3.46845 11.3246 3.71805C12.5794 3.96765 13.732 4.58374 14.6367 5.48841C15.5414 6.39308 16.1574 7.5457 16.407 8.80052C16.6566 10.0553 16.5285 11.356 16.0389 12.538C15.5493 13.72 14.7202 14.7303 13.6564 15.4411C12.5926 16.1519 11.342 16.5313 10.0626 16.5313C8.34755 16.5294 6.7033 15.8472 5.49059 14.6345C4.27787 13.4218 3.59574 11.7775 3.59383 10.0625Z" fill="white"/>
</svg>
