<svg width="26" height="24" viewBox="0 0 26 24" fill="none" xmlns="http://www.w3.org/2000/svg">
<path d="M23.2917 18L16.0953 12M9.90484 12L2.70845 18M2.16675 7L11.0121 12.7154C11.7283 13.1783 12.0865 13.4097 12.476 13.4993C12.8201 13.5785 13.18 13.5785 13.5241 13.4993C13.9137 13.4097 14.2718 13.1783 14.9881 12.7154L23.8334 7M7.36675 20H18.6334C20.4536 20 21.3637 20 22.0589 19.673C22.6704 19.3854 23.1676 18.9265 23.4792 18.362C23.8334 17.7202 23.8334 16.8802 23.8334 15.2V8.8C23.8334 7.11984 23.8334 6.27976 23.4792 5.63803C23.1676 5.07354 22.6704 4.6146 22.0589 4.32698C21.3637 4 20.4536 4 18.6334 4H7.36675C5.54658 4 4.63649 4 3.94128 4.32698C3.32975 4.6146 2.83257 5.07354 2.52098 5.63803C2.16675 6.27976 2.16675 7.11984 2.16675 8.8V15.2C2.16675 16.8802 2.16675 17.7202 2.52098 18.362C2.83257 18.9265 3.32975 19.3854 3.94128 19.673C4.63649 20 5.54658 20 7.36675 20Z" stroke="white" stroke-width="2" stroke-linecap="round" stroke-linejoin="round"/>
</svg>
