<svg width="13" height="13" viewBox="0 0 13 13" fill="none" xmlns="http://www.w3.org/2000/svg">
<path d="M6.50644 8.03299C5.63735 8.03299 4.93433 7.3559 4.93433 6.50549C4.93433 5.65507 5.63735 4.97257 6.50644 4.97257C7.37553 4.97257 8.06194 5.65507 8.06194 6.50549C8.06194 7.3559 7.37553 8.03299 6.50644 8.03299Z" fill="#FF5E1A"/>
<path opacity="0.4" d="M11.4995 7.78381C11.3943 7.62131 11.2449 7.45881 11.0511 7.35589C10.8961 7.28006 10.7965 7.15548 10.7079 7.00923C10.4256 6.54339 10.5917 5.93131 11.0622 5.65506C11.6157 5.34631 11.7929 4.65839 11.4718 4.12214L11.1009 3.48298C10.7854 2.94673 10.0934 2.75714 9.54542 3.07131C9.05829 3.33131 8.43277 3.15798 8.15045 2.69756C8.06188 2.54589 8.01206 2.38339 8.02313 2.22089C8.03974 2.00964 7.97331 1.80923 7.87367 1.64673C7.66885 1.31089 7.29797 1.08339 6.88833 1.08339H6.10781C5.70371 1.09423 5.33283 1.31089 5.12801 1.64673C5.02284 1.80923 4.96194 2.00964 4.97302 2.22089C4.98409 2.38339 4.93427 2.54589 4.8457 2.69756C4.56338 3.15798 3.93786 3.33131 3.45626 3.07131C2.9027 2.75714 2.21629 2.94673 1.89522 3.48298L1.52434 4.12214C1.20881 4.65839 1.38595 5.34631 1.93397 5.65506C2.4045 5.93131 2.57056 6.54339 2.29378 7.00923C2.19968 7.15548 2.10004 7.28006 1.94504 7.35589C1.75683 7.45881 1.59076 7.62131 1.50219 7.78381C1.29738 8.11964 1.30845 8.54214 1.51326 8.89423L1.89522 9.54423C2.10004 9.89089 2.48199 10.1076 2.88056 10.1076C3.06877 10.1076 3.29019 10.0534 3.46733 9.94506C3.60572 9.85298 3.77179 9.82048 3.95446 9.82048C4.50249 9.82048 4.96194 10.2701 4.97302 10.8063C4.97302 11.4292 5.48229 11.9167 6.12442 11.9167H6.87726C7.51386 11.9167 8.02313 11.4292 8.02313 10.8063C8.03974 10.2701 8.49919 9.82048 9.04722 9.82048C9.22436 9.82048 9.39043 9.85298 9.53435 9.94506C9.71149 10.0534 9.92738 10.1076 10.1211 10.1076C10.5142 10.1076 10.8961 9.89089 11.1009 9.54423L11.4884 8.89423C11.6877 8.53131 11.7043 8.11964 11.4995 7.78381Z" fill="#FF5E1A"/>
</svg>
