<svg width="30" height="30" viewBox="0 0 30 30" fill="none" xmlns="http://www.w3.org/2000/svg">
<path d="M15.0147 18.5377C13.0091 18.5377 11.3867 16.9752 11.3867 15.0127C11.3867 13.0502 13.0091 11.4752 15.0147 11.4752C17.0203 11.4752 18.6043 13.0502 18.6043 15.0127C18.6043 16.9752 17.0203 18.5377 15.0147 18.5377Z" fill="#7D7D7D"/>
<path opacity="0.4" d="M26.5374 17.9626C26.2947 17.5876 25.9498 17.2126 25.5027 16.9751C25.145 16.8001 24.9151 16.5126 24.7107 16.1751C24.0592 15.1001 24.4424 13.6876 25.5282 13.0501C26.8057 12.3376 27.2145 10.7501 26.4735 9.51264L25.6177 8.03764C24.8895 6.80014 23.2927 6.36264 22.028 7.08764C20.9039 7.68764 19.4604 7.28764 18.8089 6.22514C18.6045 5.87514 18.4895 5.50014 18.5151 5.12514C18.5534 4.63764 18.4001 4.17514 18.1701 3.80014C17.6975 3.02514 16.8416 2.50014 15.8963 2.50014H14.0951C13.1626 2.52514 12.3067 3.02514 11.834 3.80014C11.5913 4.17514 11.4508 4.63764 11.4763 5.12514C11.5019 5.50014 11.3869 5.87514 11.1825 6.22514C10.531 7.28764 9.0875 7.68764 7.97612 7.08764C6.69867 6.36264 5.11464 6.80014 4.37372 8.03764L3.51783 9.51264C2.78968 10.7501 3.19847 12.3376 4.46314 13.0501C5.54897 13.6876 5.9322 15.1001 5.29348 16.1751C5.07631 16.5126 4.84637 16.8001 4.48869 16.9751C4.05436 17.2126 3.67112 17.5876 3.46673 17.9626C2.99408 18.7376 3.01963 19.7126 3.49228 20.5251L4.37372 22.0251C4.84637 22.8251 5.72781 23.3251 6.64757 23.3251C7.08191 23.3251 7.59288 23.2001 8.00167 22.9501C8.32103 22.7376 8.70426 22.6626 9.12582 22.6626C10.3905 22.6626 11.4508 23.7001 11.4763 24.9376C11.4763 26.3751 12.6516 27.5001 14.1334 27.5001H15.8707C17.3398 27.5001 18.5151 26.3751 18.5151 24.9376C18.5534 23.7001 19.6137 22.6626 20.8783 22.6626C21.2871 22.6626 21.6703 22.7376 22.0025 22.9501C22.4113 23.2001 22.9095 23.3251 23.3566 23.3251C24.2636 23.3251 25.145 22.8251 25.6177 22.0251L26.5119 20.5251C26.9718 19.6876 27.0101 18.7376 26.5374 17.9626Z" fill="#FF5E1A"/>
</svg>
