<svg width="20" height="20" viewBox="0 0 20 20" fill="none" xmlns="http://www.w3.org/2000/svg">
<path d="M10 10C8.6 10 7.41667 9.51667 6.45 8.55C5.48334 7.58334 5 6.4 5 5C5 3.6 5.48334 2.41667 6.45 1.45C7.41667 0.483334 8.6 0 10 0C11.4 0 12.5833 0.483334 13.55 1.45C14.5167 2.41667 15 3.6 15 5C15 6.4 14.5167 7.58334 13.55 8.55C12.5833 9.51667 11.4 10 10 10ZM0 20V17.2C0 16.4 0.208335 15.6583 0.625002 14.975C1.04167 14.2917 1.63333 13.8 2.4 13.5C3.6 13 4.84167 12.625 6.125 12.375C7.40833 12.125 8.7 12 10 12C11.3 12 12.5917 12.125 13.875 12.375C15.1583 12.625 16.4 13 17.6 13.5C18.3667 13.8 18.9583 14.2917 19.375 14.975C19.7917 15.6583 20 16.4 20 17.2V20H0Z" fill="#FF5E1A"/>
</svg>
