<svg width="24" height="24" viewBox="0 0 24 24" fill="none" xmlns="http://www.w3.org/2000/svg">
  <defs>
    <style>
      .cls-1 {
        fill: #fff;
      }
    </style>
  </defs>
  <!-- Generator: Adobe Illustrator 28.7.1, SVG Export Plug-In . SVG Version: 1.2.0 Build 142)  -->
  <g>
    <g id="Layer_1">
      <g id="Layer_1-2" data-name="Layer_1">
        <g>
          <path class="cls-1" d="M22.6,4.9c0,1-.3,1.7-1,2.2-1.8,1.8-3.6,3.6-5.4,5.4l-5,5c-.7.8-1.7,1.3-2.8,1.4-1,0-2,.3-2.8.4-.4,0-.7-.1-.7-.6.1-1.3.3-2.4.6-3.6,0-.6.4-1.1.8-1.5l1.5-1.5c3.2-3.2,6.3-6.3,9.5-9.5,1.3-1.3,3.1-1.3,4.3,0,.7.6,1,1.4,1,2.4h0ZM10.3,16.8c3.1-3.1,6.1-6.1,9.2-9.2-1-1-1.8-1.8-2.8-2.8-3.1,3.1-6.1,6.1-9.2,9.2,1,1,1.8,1.8,2.8,2.8ZM17.7,3.8c1,1,1.8,1.8,2.8,2.8.7-.6,1.1-1.3.8-2.2-.1-.8-.7-1.4-1.5-1.5s-1.5.1-2.1.8h0ZM6.1,18.1h0c.8,0,1.8-.3,2.7-.4.1,0,.4-.1.6-.1l-2.8-2.8c-.4,1.1-.4,2.2-.6,3.4h.1Z"/>
          <path class="cls-1" d="M20.1,13.7h1.1v3.4c0,2.5-1.7,4.6-4.1,5H6.6c-2.9,0-5.2-2.2-5.2-5.2V7.4c0-2.8,2.1-5,4.9-5.2h3.5v1.1h-3.5c-2.2,0-3.9,1.7-3.9,3.9v9.6c0,2.2,1.8,3.9,4.1,3.9h9.5c2.4,0,4.1-1.8,4.1-4.1v-3.4.3Z"/>
        </g>
      </g>
    </g>
  </g>
</svg>