<svg width="19" height="19" viewBox="0 0 19 19" fill="none" xmlns="http://www.w3.org/2000/svg">
<path d="M1.58333 7.12492C1.58333 6.03625 1.58333 5.49192 1.78958 5.07367C1.98431 4.67881 2.30389 4.35923 2.69875 4.16451C3.11699 3.95825 3.66133 3.95825 4.75 3.95825H14.25C15.3387 3.95825 15.883 3.95825 16.3012 4.16451C16.6961 4.35923 17.0157 4.67881 17.2104 5.07367C17.4167 5.49192 17.4167 6.03625 17.4167 7.12492C17.4167 7.39709 17.4167 7.53317 17.3651 7.63773C17.3164 7.73645 17.2365 7.81634 17.1378 7.86502C17.0332 7.91659 16.8972 7.91659 16.625 7.91659H2.375C2.10283 7.91659 1.96674 7.91659 1.86218 7.86502C1.76347 7.81634 1.68357 7.73645 1.63489 7.63773C1.58333 7.53317 1.58333 7.39709 1.58333 7.12492Z" fill="white"/>
<path fill-rule="evenodd" clip-rule="evenodd" d="M1.58333 13.4167C1.58333 15.3023 1.58333 16.2451 2.16911 16.8309C2.7549 17.4167 3.69771 17.4167 5.58333 17.4167H13.4167C15.3023 17.4167 16.2451 17.4167 16.8309 16.8309C17.4167 16.2451 17.4167 15.3023 17.4167 13.4167V10.5V10.5C17.4167 10.0286 17.4167 9.79289 17.2702 9.64645C17.1238 9.5 16.8881 9.5 16.4167 9.5H2.58333C2.11192 9.5 1.87622 9.5 1.72977 9.64645C1.58333 9.79289 1.58333 10.0286 1.58333 10.5V13.4167ZM5.54166 11.875C5.54166 11.6028 5.54166 11.4667 5.59323 11.3622C5.64191 11.2635 5.7218 11.1836 5.82052 11.1349C5.92508 11.0833 6.06116 11.0833 6.33333 11.0833H7.91666C8.18883 11.0833 8.32491 11.0833 8.42947 11.1349C8.52819 11.1836 8.60808 11.2635 8.65676 11.3622C8.70833 11.4667 8.70833 11.6028 8.70833 11.875C8.70833 12.1472 8.70833 12.2832 8.65676 12.3878C8.60808 12.4865 8.52819 12.5664 8.42947 12.6151C8.32491 12.6667 8.18883 12.6667 7.91666 12.6667H6.33333C6.06116 12.6667 5.92508 12.6667 5.82052 12.6151C5.7218 12.5664 5.64191 12.4865 5.59323 12.3878C5.54166 12.2832 5.54166 12.1472 5.54166 11.875ZM5.59323 14.5289C5.54166 14.6334 5.54166 14.7695 5.54166 15.0417C5.54166 15.3138 5.54166 15.4499 5.59323 15.5545C5.64191 15.6532 5.7218 15.7331 5.82052 15.7818C5.92508 15.8333 6.06116 15.8333 6.33333 15.8333H7.91666C8.18883 15.8333 8.32491 15.8333 8.42947 15.7818C8.52819 15.7331 8.60808 15.6532 8.65676 15.5545C8.70833 15.4499 8.70833 15.3138 8.70833 15.0417C8.70833 14.7695 8.70833 14.6334 8.65676 14.5289C8.60808 14.4301 8.52819 14.3502 8.42947 14.3016C8.32491 14.25 8.18883 14.25 7.91666 14.25H6.33333C6.06116 14.25 5.92508 14.25 5.82052 14.3016C5.7218 14.3502 5.64191 14.4301 5.59323 14.5289ZM10.2917 11.875C10.2917 11.6028 10.2917 11.4667 10.3432 11.3622C10.3919 11.2635 10.4718 11.1836 10.5705 11.1349C10.6751 11.0833 10.8112 11.0833 11.0833 11.0833H12.6667C12.9388 11.0833 13.0749 11.0833 13.1795 11.1349C13.2782 11.1836 13.3581 11.2635 13.4068 11.3622C13.4583 11.4667 13.4583 11.6028 13.4583 11.875C13.4583 12.1472 13.4583 12.2832 13.4068 12.3878C13.3581 12.4865 13.2782 12.5664 13.1795 12.6151C13.0749 12.6667 12.9388 12.6667 12.6667 12.6667H11.0833C10.8112 12.6667 10.6751 12.6667 10.5705 12.6151C10.4718 12.5664 10.3919 12.4865 10.3432 12.3878C10.2917 12.2832 10.2917 12.1472 10.2917 11.875ZM10.3432 14.5289C10.2917 14.6334 10.2917 14.7695 10.2917 15.0417C10.2917 15.3138 10.2917 15.4499 10.3432 15.5545C10.3919 15.6532 10.4718 15.7331 10.5705 15.7818C10.6751 15.8333 10.8112 15.8333 11.0833 15.8333H12.6667C12.9388 15.8333 13.0749 15.8333 13.1795 15.7818C13.2782 15.7331 13.3581 15.6532 13.4068 15.5545C13.4583 15.4499 13.4583 15.3138 13.4583 15.0417C13.4583 14.7695 13.4583 14.6334 13.4068 14.5289C13.3581 14.4301 13.2782 14.3502 13.1795 14.3016C13.0749 14.25 12.9388 14.25 12.6667 14.25H11.0833C10.8112 14.25 10.6751 14.25 10.5705 14.3016C10.4718 14.3502 10.3919 14.4301 10.3432 14.5289Z" fill="white"/>
<path d="M5.54167 2.375L5.54167 4.75" stroke="white" stroke-width="2" stroke-linecap="round"/>
<path d="M13.4583 2.375L13.4583 4.75" stroke="white" stroke-width="2" stroke-linecap="round"/>
</svg>
