<svg width="20" height="20" viewBox="0 0 20 20" fill="none" xmlns="http://www.w3.org/2000/svg">
<path d="M8.15812 16.4472L8.47435 17.3959H8.47435L8.15812 16.4472ZM12.1581 15.1139L11.8419 14.1652H11.8419L12.1581 15.1139ZM16.3738 6.12615L17.0809 6.83325L16.3738 6.12615ZM12.7929 9.70703L12.0858 8.99992L12.7929 9.70703ZM7.20711 9.70702L6.5 10.4141L7.20711 9.70702ZM3.62624 6.12615L2.91913 6.83325L3.62624 6.12615ZM4.33334 4.33325H15.6667V2.33325H4.33334V4.33325ZM4.33334 5.41904V4.33325H2.33334V5.41904H4.33334ZM7.91422 8.99991L4.33334 5.41904L2.91913 6.83325L6.5 10.4141L7.91422 8.99991ZM6.5 10.4141V15.9729H8.5V10.4141H6.5ZM6.5 15.9729C6.5 16.9967 7.50305 17.7197 8.47435 17.3959L7.84189 15.4985C8.16566 15.3906 8.5 15.6316 8.5 15.9729H6.5ZM8.47435 17.3959L12.4743 16.0626L11.8419 14.1652L7.84189 15.4985L8.47435 17.3959ZM12.4743 16.0626C13.0869 15.8584 13.5 15.2852 13.5 14.6395H11.5C11.5 14.4243 11.6377 14.2333 11.8419 14.1652L12.4743 16.0626ZM13.5 14.6395V10.4141H11.5V14.6395H13.5ZM15.6667 5.41904L12.0858 8.99992L13.5 10.4141L17.0809 6.83325L15.6667 5.41904ZM15.6667 4.33325V5.41904H17.6667V4.33325H15.6667ZM17.0809 6.83325C17.456 6.45818 17.6667 5.94947 17.6667 5.41904H15.6667V5.41904L17.0809 6.83325ZM13.5 10.4141V10.4141L12.0858 8.99992C11.7107 9.375 11.5 9.88371 11.5 10.4141H13.5ZM6.5 10.4141H8.5C8.5 9.88369 8.28929 9.37499 7.91422 8.99991L6.5 10.4141ZM2.33334 5.41904C2.33334 5.94947 2.54406 6.45818 2.91913 6.83325L4.33334 5.41904L4.33334 5.41904H2.33334ZM15.6667 4.33325H15.6667H17.6667C17.6667 3.22868 16.7712 2.33325 15.6667 2.33325V4.33325ZM4.33334 2.33325C3.22877 2.33325 2.33334 3.22868 2.33334 4.33325H4.33334V4.33325V2.33325Z" fill="black"/>
</svg>
