<svg width="18" height="24" viewBox="0 0 18 24" fill="none" xmlns="http://www.w3.org/2000/svg">
<path d="M2.67962 3.32038L3.29289 2.70711C3.68342 2.31658 4.31658 2.31658 4.70711 2.70711L7.29289 5.29289C7.68342 5.68342 7.68342 6.31658 7.29289 6.70711L5.50048 8.49952C5.2016 8.7984 5.1275 9.255 5.31653 9.63307C6.40929 11.8186 8.18142 13.5907 10.3669 14.6835C10.745 14.8725 11.2016 14.7984 11.5005 14.4995L13.2929 12.7071C13.6834 12.3166 14.3166 12.3166 14.7071 12.7071L17.2929 15.2929C17.6834 15.6834 17.6834 16.3166 17.2929 16.7071L16.6796 17.3204C14.5683 19.4317 11.2257 19.6693 8.83698 17.8777L7.62857 16.9714C5.88504 15.6638 4.33622 14.115 3.02857 12.3714L2.12226 11.163C0.330722 8.7743 0.568269 5.43173 2.67962 3.32038Z" fill="white"/>
</svg>
