<svg width="49" height="48" viewBox="0 0 49 48" fill="none" xmlns="http://www.w3.org/2000/svg">
<path d="M28.0678 47.9286C23.7864 47.9286 20.1392 46.4222 17.1264 43.4093C14.1135 40.3965 12.6071 36.7493 12.6071 32.4679V31.1002C9.19781 30.5452 6.36334 28.9496 4.1037 26.3133C1.84406 23.6771 0.714233 20.575 0.714233 17.0072V2.73575H7.84995V0.357178H12.6071V9.87146H7.84995V7.49289H5.47138V17.0072C5.47138 19.6236 6.40298 21.8634 8.2662 23.7266C10.1294 25.5899 12.3692 26.5215 14.9857 26.5215C17.6021 26.5215 19.8419 25.5899 21.7051 23.7266C23.5683 21.8634 24.4999 19.6236 24.4999 17.0072V7.49289H22.1214V9.87146H17.3642V0.357178H22.1214V2.73575H29.2571V17.0072C29.2571 20.575 28.1273 23.6771 25.8676 26.3133C23.608 28.9496 20.7735 30.5452 17.3642 31.1002V32.4679C17.3642 35.4411 18.4049 37.9683 20.4861 40.0496C22.5674 42.1308 25.0946 43.1715 28.0678 43.1715C31.041 43.1715 33.5683 42.1308 35.6495 40.0496C37.7308 37.9683 38.7714 35.4411 38.7714 32.4679V28.4838C37.3839 28.0081 36.2441 27.1558 35.3522 25.9268C34.4602 24.6979 34.0142 23.3104 34.0142 21.7643C34.0142 19.7822 34.708 18.0974 36.0955 16.7099C37.483 15.3224 39.1678 14.6286 41.1499 14.6286C43.1321 14.6286 44.8169 15.3224 46.2044 16.7099C47.5919 18.0974 48.2857 19.7822 48.2857 21.7643C48.2857 23.3104 47.8397 24.6979 46.9477 25.9268C46.0558 27.1558 44.916 28.0081 43.5285 28.4838V32.4679C43.5285 36.7493 42.0221 40.3965 39.0092 43.4093C35.9964 46.4222 32.3492 47.9286 28.0678 47.9286ZM41.1499 24.1429C41.8239 24.1429 42.3888 23.9149 42.8447 23.4591C43.3006 23.0032 43.5285 22.4382 43.5285 21.7643C43.5285 21.0904 43.3006 20.5255 42.8447 20.0696C42.3888 19.6137 41.8239 19.3857 41.1499 19.3857C40.476 19.3857 39.9111 19.6137 39.4552 20.0696C38.9993 20.5255 38.7714 21.0904 38.7714 21.7643C38.7714 22.4382 38.9993 23.0032 39.4552 23.4591C39.9111 23.9149 40.476 24.1429 41.1499 24.1429Z" fill="#FF5E1A"/>
</svg>
